<?xml version="1.0" encoding="UTF-8"?>
<svg id="Layer_1" data-name="Layer 1" xmlns="http://www.w3.org/2000/svg" version="1.1" viewBox="0 0 838.1 826.3">
  <defs>
    <style>
      .cls-1 {
        fill: #293a3a;
      }

      .cls-1, .cls-2, .cls-3, .cls-4, .cls-5, .cls-6 {
        stroke-width: 0px;
      }

      .cls-2 {
        fill: #704200;
      }

      .cls-3 {
        fill: #ce1e6b;
      }

      .cls-4 {
        fill: #19323c;
      }

      .cls-5 {
        fill: #f9c666;
      }

      .cls-6 {
        fill: #db8546;
      }
    </style>
  </defs>
  <g>
    <path class="cls-5" d="M227.4,710.6c.2-9.9-142.4-136.8-195.3-94.8-13.9-37.5-32.4-37.6,0-57,8.1-4.9,16.1-8.2,24.2-10.4,0,0,31.4-8.6,69.3,4.1,4.5,1.5,6.8,2.9,6.8,2.9,3.3,2,4,3.4,5.3,3.3,1.6,0,3.8-2.3,6.1-11.8-56.5-62.3-102.6-18.2-108.5-19.8-2.2-.6-15.4-31.2-21.4-37.2,22.4-25,57.5-39.6,90.3-43.6-.5,7.8-21.3.7-16.6,9.5,37.7,1.5,68.5,17.7,93.5,45.9,8-1.1-2.4-41.2-7.1-52.3-24-55.9-104.6-85.7-152.9-41.2-18.6-33.1-36.6-42.4,1.6-69.7,60.4-43.1,152.7-3.5,197.2,47.5-5.3,1-7.1-2.1-7.9-.8,15.1,44.1,36.6,86.3,57,128.3-2.5,4.2-51.8-28-91.9-4.8,9,31.9,27,61.1,49.1,85.5,2,8.2-16.7-7.7-42,4,1.6,27.6,8.3,63.2,30.9,95.8,12.8,18.5,26.3,32.4,37.7,41.7"/>
    <path class="cls-5" d="M81.9,224.6c38.2-.2,69.3-.7,103.8,19,31.2,17.9,22.2,22.6,23,24.6,18.3,44,41.4,82.8,63.4,125.1-.5,6-26.8-9.8-50.7-8.7-34.6-79-120.5-126-194.1-63.4-5.1-16.9-23-41.1-23-43.6.1-5.9,35-44.9,77.6-53.1Z"/>
    <path class="cls-3" d="M691.8,227.7c66.8,32.7,146.6,64,38,110.9-56.8,24.5-114.3,1.5-87.1-59.4,2.5-5.7,41.8-52.2,45.1-53.1.2,0,.7,1.9,4,1.6Z"/>
    <path class="cls-6" d="M173.8,449.5c4.8,11.1,15.1,51.2,7.1,52.3-24.9-28.2-71.2-40-108.8-41.5-4.7-8.8,19-12.7,32-14,23.8-2.4,46.3-1.4,69.7,3.2Z"/>
    <g>
      <path class="cls-5" d="M447.9,826.3c-24,0-47.3-2.8-69.2-8.2-43.3-12.1-84-35.5-121.2-69.5-21.6-19.8-35.4-38.5-45-52.7-9.4-13.9-21-33.2-27.1-59.2-2.9-12.5-4.4-25.4-4.3-38.3v-1.9s1.7-.8,1.7-.8c6.8-3.1,14-4.7,21.3-4.7s12,1.2,16,2.1c.3,0,.6.1.9.2-22.5-25.8-38.7-54.6-47-83.6l-.6-2.2,2-1.2c10.2-5.9,21.9-8.9,34.9-8.9,19.5,0,37.6,6.7,48.5,10.8,1.7.6,3.3,1.2,4.8,1.7-1.4-2.9-2.9-5.8-4.3-8.8-18.1-37.1-36.9-75.4-50.4-114.8l-.5-1.3.7-1.2c.7-1.1,1.8-1.8,3.1-1.8s1.6.3,2.3.6c.8.3,1.7.7,3,.7s.6,0,.9,0c.1-.2.2-.4.4-.6l.9-1.1h1.4c.8-.1,1.7-.1,2.6-.1,12.7,0,25.7,4.2,35.1,7.2,3.3,1.1,6.5,2.1,8.7,2.6-5.9-11.3-11.9-22.4-17.7-33.2-16-29.6-31-57.6-44-88.8-.6-1.4-.2-2.6.1-3.4,1.7-5-10.9-13.5-21.8-19.7-30.1-17.3-58.2-18.7-89.2-18.7s-7.2,0-10.9,0h-2.2s.3-3.2.3-3.2c10.5-2,20.1-5.7,30.3-5.7,53,0,102.2,27.4,146.1,81.4,36.3,44.6,61,96.9,77.3,131.5,7.1,14.9,12.6,26.8,16.2,31.3,9.6,12.3,23.8,19.1,39.8,19.1s25.6-4.4,36-12.5c28.8-22.3,61.1-108.3,89.6-184.1,22.8-60.5,44.3-117.7,62.7-140.9,5.7-7.1,20.9-21.3,29.6-25.4,12.4-5.9,24.6-8.9,36.5-8.9,32.2,0,55.8,21.8,71.5,36.2,4.1,3.8,7.6,7,10.7,9.4,10.4,8,21.1,15.9,31.5,23.6,24.6,18.3,50.1,37.1,73.3,58.1l4.9,4.4-6.5.8c-7,.8-15.7,1.2-26.6,1.2s-20.6-.3-30.8-.7c-10-.3-19.4-.6-28-.6s-13,.2-17.7.7c18.4,34.3,31.6,70.4,39.1,107.5,9.3,46.1,10.3,94.7,2.9,144.4-6.9,46.5-20.7,91.8-41.1,134.9-19.5,41.2-44.6,78.8-72.8,108.9-28.7,30.7-60.6,53.6-92.4,66.4-8.7,3.5-55.4,21-116.4,21Z"/>
      <path class="cls-5" d="M764.7,351.3c38.5,190-72.6,399.4-201.5,451.2-24.8,10-102.1,33.1-183.8,12.7,0,0,0,0,0,0-63.1-17.7-105.6-55.7-119.9-68.8-22.7-20.8-36.5-40.3-44.5-52.1-10.5-15.5-21-33.8-26.7-58.2-3.7-15.6-4.3-29-4.2-37.6,25.3-11.7,43.9,4.2,42-4-22.1-24.5-40.1-53.7-49.1-85.5,40.1-23.3,89.4,9,91.9,4.8-20.5-42-41.9-84.2-57-128.3.8-1.3,2.6,1.8,7.9.8,2.2-.4,1.5-1.6,1.6-1.6,23.9-1.1,50.2,14.7,50.7,8.7-21.9-42.4-45.1-81.1-63.4-125.1-.8-2,8.2-6.7-23-24.6-34.4-19.8-65.3-16.4-103.5-16.2,170.1-32.5,246.1,210,267.4,237.2,19.7,25.2,55.5,26.1,80,7.1,52.1-40.5,111.2-272.9,152.9-325.5,5.6-7.1,20.4-20.7,28.5-24.6,59.3-28.3,95.7,21.1,115.6,36.4,35,26.9,71.8,51.9,104.6,81.6-29.9,3.6-79.1-2.1-104.6.8-.3,0-1.8.2-3.1-.6-.4-.3-.7-.6-.9-.9,14.5,26,32.2,64.1,42,112.5Z"/>
      <g>
        <g>
          <path class="cls-1" d="M569.9,585.8c-16.4,97-200.7,213.9-275.6,111.7,35.1-6.1,67.3-22.9,91.9-49.1-3.2-4.2-46.6,13.8-99.8-26.1l1.6-1.6c28.7,2,51.1,1.7,79.2-6.3,23.7-6.7,45.8-20.3,64.2-36.4,21.5,82,95,61.3,138.6,7.9Z"/>
          <path class="cls-6" d="M569.9,585.8c-43.7,53.4-117.2,74-138.6-7.9-18.3,16.2-40.5,29.7-64.2,36.4-21.9-5.2-47.7-5.6-64.2-23.8,95.1,6.6,114.5-54.8,148.9-77.6,52.9-35,132.6-13.3,118,72.9Z"/>
        </g>
        <path class="cls-4" d="M674.4,188.9"/>
        <path class="cls-1" d="M671.2,203.2"/>
        <path class="cls-1" d="M660.9,197.6"/>
        <path class="cls-2" d="M287.9,620.6l-1.6,1.6c-7.1-5.7,1.2-1.6,1.6-1.6Z"/>
      </g>
    </g>
  </g>
  <path class="cls-5" d="M732.7,174.6c-18.4-38.4-61.8-57.5-102.9-50.8-27.9,4.6-44,20.2-46.5,20.5-3.6.5-27.2-3.3-31.2-5.1-14.3-6.5-19.9-28.5-15.4-42.7,16.8-1.1,32.1,5.1,48.2,8.1-59.9-21.5-37.3-72.6-16.6-78.1,23.9-6.4,55.2,21.1,73.4,35,4.3-.9-13.9-55.5,16.2-61,31.3-5.7,44,49.6,50.4,71.3,2.5-18,3.6-37,10.2-53.8,31.9,18.8,52.8,66.9,55.9,102.4,1.5,17.3.6,32.9-8.5,48.2-2.9,4.9-9.5,10.2-11.1,12.4"/>
</svg>